<svg xmlns="http://www.w3.org/2000/svg" viewBox="0 0 1200 630" role="img" aria-labelledby="title desc">
  <title id="title">LatamSoft web social card, dark</title>
  <desc id="desc">Open graph style image for LatamSoft website and social previews.</desc>
  <rect width="1200" height="630" fill="#061826"/>
  <path d="M842 78c96 26 178 97 218 189 40 91 33 201-20 281" fill="none" stroke="#12C7B8" stroke-width="2" opacity=".22"/>
  <path d="M902 128c70 24 126 80 151 150 24 68 18 147-18 210" fill="none" stroke="#B7F45A" stroke-width="2" opacity=".2"/>
  <circle cx="1038" cy="202" r="7" fill="#B7F45A"/>
  <circle cx="982" cy="444" r="5" fill="#12C7B8"/>
  <g transform="translate(88 82) scale(0.78)">
    <defs>
      <linearGradient id="ls-light-blue" x1="45" y1="45" x2="165" y2="190" gradientUnits="userSpaceOnUse">
        <stop offset="0" stop-color="#EAF7FF"/>
        <stop offset="1" stop-color="#7FD4FF"/>
      </linearGradient>
      <linearGradient id="ls-teal-dark" x1="110" y1="85" x2="230" y2="214" gradientUnits="userSpaceOnUse">
        <stop offset="0" stop-color="#28E0D0"/>
        <stop offset="1" stop-color="#12C7B8"/>
      </linearGradient>
    </defs>
    <path d="M52 36v86c0 18 10 28 28 28h58" fill="none" stroke="url(#ls-light-blue)" stroke-width="44" stroke-linecap="round" stroke-linejoin="round"/>
    <path d="M99 84h76c19 0 30 11 30 29v4c0 19-11 30-30 30h-49c-18 0-29 10-29 28v0c0 18 11 29 29 29h79" fill="none" stroke="url(#ls-teal-dark)" stroke-width="42" stroke-linecap="round" stroke-linejoin="round"/>
    <rect x="109" y="109" width="38" height="38" rx="10" fill="#B7F45A"/>
  </g>
  <text x="310" y="192" fill="#FFFFFF" font-family="Space Grotesk, Sora, Inter, Segoe UI, Arial, sans-serif" font-size="74" font-weight="760">Latam</text>
  <text x="522" y="192" fill="#7FD4FF" font-family="Space Grotesk, Sora, Inter, Segoe UI, Arial, sans-serif" font-size="74" font-weight="760">Soft</text>
  <text x="94" y="354" fill="#FFFFFF" font-family="Space Grotesk, Sora, Inter, Segoe UI, Arial, sans-serif" font-size="58" font-weight="720">Software que simplifica procesos</text>
  <text x="98" y="426" fill="#B8D2E5" font-family="Inter, Segoe UI, Arial, sans-serif" font-size="30" font-weight="500">Automatizacion, productos digitales y desarrollo a medida</text>
  <rect x="98" y="504" width="236" height="52" rx="26" fill="#12C7B8"/>
  <text x="128" y="538" fill="#061826" font-family="Inter, Segoe UI, Arial, sans-serif" font-size="22" font-weight="800">latamsoft</text>
</svg>
